<?xml version="1.0" encoding="iso-8859-1"?>
<!-- Generator: Adobe Illustrator 18.0.0, SVG Export Plug-In . SVG Version: 6.00 Build 0)  -->
<!DOCTYPE svg PUBLIC "-//W3C//DTD SVG 1.1//EN" "http://www.w3.org/Graphics/SVG/1.1/DTD/svg11.dtd">
<svg version="1.1" id="Capa_1" xmlns="http://www.w3.org/2000/svg" xmlns:xlink="http://www.w3.org/1999/xlink" x="0px" y="0px"
	 viewBox="0 0 347.958 347.958" style="enable-background:new 0 0 347.958 347.958;" xml:space="preserve">
<path d="M327.976,93.864l19.982-19.991l-59.02-59.042l-146.92,146.923c-35.84-22.488-83.666-18.17-114.852,13.009
	c-36.223,36.23-36.223,94.968,0,131.196c36.227,36.224,94.957,36.224,131.184-0.001c31.18-31.182,35.5-79.019,13.012-114.84
	l61.035-61.022l29.678,29.674l21.539-21.553l-19.682-19.677l10.627-10.621l19.672,19.679l23.127-23.119l-19.676-19.674l10.613-10.62
	L327.976,93.864z M91.825,300.022L33.107,241.3l19.979-19.994l58.726,58.724L91.825,300.022z"/>
<g>
</g>
<g>
</g>
<g>
</g>
<g>
</g>
<g>
</g>
<g>
</g>
<g>
</g>
<g>
</g>
<g>
</g>
<g>
</g>
<g>
</g>
<g>
</g>
<g>
</g>
<g>
</g>
<g>
</g>
</svg>
